<?xml version="1.0" standalone="no"?>
<!DOCTYPE svg PUBLIC "-//W3C//DTD SVG 20010904//EN"
 "http://www.w3.org/TR/2001/REC-SVG-20010904/DTD/svg10.dtd">
<svg version="1.0" xmlns="http://www.w3.org/2000/svg"
 width="221.000000pt" height="100.000000pt" viewBox="0 0 221.000000 100.000000"
 preserveAspectRatio="xMidYMid meet">

<g transform="translate(0.000000,100.000000) scale(0.100000,-0.100000)"
fill="#000000" stroke="none">
<path d="M346 965 c-84 -29 -131 -62 -200 -135 -153 -166 -169 -419 -40 -608
49 -70 103 -115 190 -158 103 -51 182 -56 903 -52 l616 3 70 29 c131 54 217
135 277 262 32 67 33 73 33 199 0 125 -1 133 -31 195 -65 136 -169 229 -302
270 -61 19 -94 20 -756 20 l-691 0 -69 -25z m154 -29 c0 -32 -1 -33 -50 -39
-155 -19 -299 -158 -332 -323 -10 -51 -12 -54 -41 -54 l-30 0 6 56 c18 173
176 339 360 379 88 19 87 19 87 -19z m1289 23 c193 -32 348 -188 383 -382 42
-240 -134 -486 -377 -527 -49 -8 -226 -10 -590 -8 l-520 3 48 24 c64 31 154
116 194 183 35 57 73 188 73 247 0 60 -28 172 -57 231 -34 67 -143 178 -200
204 -24 10 -43 23 -43 28 0 13 1011 10 1089 -3z m-1079 -41 c115 -56 212 -175
246 -303 21 -79 19 -95 -14 -95 -26 0 -29 4 -40 58 -16 78 -45 133 -104 198
-56 60 -147 110 -222 120 -43 6 -46 9 -46 37 l0 30 58 -7 c32 -3 85 -20 122
-38z m-162 -190 c2 -20 9 -28 23 -28 53 0 98 -48 99 -102 0 -37 -1 -38 -35
-38 -32 0 -35 3 -35 29 0 26 -14 41 -41 41 -5 0 -9 -22 -9 -50 0 -49 0 -49 39
-60 68 -18 99 -89 69 -155 -13 -29 -55 -55 -88 -55 -16 0 -20 -6 -20 -30 0
-28 -2 -30 -40 -30 -38 0 -40 2 -40 30 0 24 -4 30 -21 30 -53 0 -98 47 -99
103 0 36 1 37 34 37 32 0 35 -3 38 -32 2 -25 8 -34 26 -36 20 -3 22 1 22 46 0
48 0 49 -40 61 -48 14 -80 58 -80 109 0 41 44 89 89 98 23 5 31 12 31 29 0 30
9 36 45 33 24 -2 31 -8 33 -30z m-426 -307 c18 -75 64 -157 119 -210 45 -44
150 -93 210 -99 48 -4 49 -5 49 -38 0 -40 -5 -41 -99 -19 -177 42 -330 206
-347 374 l-7 61 29 0 c29 0 31 -3 46 -69z m848 47 c-2 -174 -172 -371 -359
-414 -80 -19 -83 -19 -79 18 3 30 6 32 58 43 157 32 279 156 312 317 11 54 14
58 40 58 22 0 28 -4 28 -22z"/>
<path d="M436 617 c-23 -17 -17 -47 12 -58 20 -8 22 -6 22 31 0 43 -6 47 -34
27z"/>
<path d="M550 420 c0 -40 11 -49 38 -31 20 12 10 53 -15 62 -21 8 -23 6 -23
-31z"/>
</g>
</svg>
