<?xml version="1.0" standalone="no"?>
<!DOCTYPE svg PUBLIC "-//W3C//DTD SVG 20010904//EN"
 "http://www.w3.org/TR/2001/REC-SVG-20010904/DTD/svg10.dtd">
<svg version="1.0" xmlns="http://www.w3.org/2000/svg"
 width="100.000000pt" height="221.000000pt" viewBox="0 0 100.000000 221.000000"
 preserveAspectRatio="xMidYMid meet">

<g transform="translate(0.000000,221.000000) scale(0.100000,-0.100000)"
fill="#000000" stroke="none">
<path d="M365 2177 c-179 -59 -298 -181 -345 -356 -6 -25 -10 -280 -11 -728 0
-679 0 -691 21 -754 53 -157 155 -262 311 -316 65 -22 85 -25 178 -21 126 5
192 28 278 93 71 53 125 122 161 206 l27 64 0 710 0 710 -23 68 c-49 139 -150
249 -282 304 -54 22 -83 27 -170 30 -68 2 -119 -2 -145 -10z m265 -33 c66 -18
175 -89 218 -143 47 -59 92 -154 102 -218 12 -68 14 -1083 3 -1083 -5 0 -16
19 -27 41 -28 61 -122 151 -195 188 -196 99 -426 64 -580 -89 -33 -32 -70 -81
-83 -109 -12 -28 -26 -51 -30 -51 -13 0 -10 1024 3 1099 26 153 152 308 291
357 100 35 189 37 298 8z m-42 -1200 c16 -5 22 -14 22 -33 l0 -27 -110 1 -110
0 0 27 c0 14 6 29 13 31 17 8 158 8 185 1z m-218 -45 c0 -26 -6 -33 -44 -50
-63 -28 -148 -109 -182 -174 -26 -50 -32 -55 -63 -55 -39 0 -38 2 14 96 41 73
123 151 197 188 67 34 78 33 78 -5z m352 -7 c65 -34 149 -125 187 -200 17 -34
31 -64 31 -67 0 -3 -15 -5 -33 -5 -30 0 -36 5 -56 48 -35 74 -116 153 -188
181 -28 12 -33 18 -33 48 0 31 2 34 23 28 12 -4 43 -19 69 -33z m-184 -224
c17 -17 15 -53 -3 -68 -13 -11 -12 -16 8 -40 12 -15 27 -36 33 -46 11 -18 13
-18 50 3 25 14 38 28 36 39 -4 22 26 54 51 54 25 0 57 -27 57 -48 0 -23 -30
-52 -55 -52 -17 0 -25 -10 -35 -42 -8 -24 -20 -55 -27 -71 l-14 -28 -142 3
-142 3 -24 68 c-20 57 -27 67 -47 67 -14 0 -30 10 -40 25 -15 23 -15 27 0 50
30 45 103 21 93 -30 -3 -18 4 -26 30 -39 18 -9 37 -16 41 -16 5 0 22 20 39 44
27 38 29 46 17 57 -17 14 -18 51 -2 67 15 15 61 15 76 0z m-433 -173 l0 -105
-31 0 c-31 0 -32 2 -38 54 -6 48 -2 105 9 144 3 6 17 12 32 12 l28 0 0 -105z
m315 87 c19 -16 21 -22 11 -40 -12 -22 -27 -27 -55 -16 -18 7 -20 27 -6 55 13
24 22 24 50 1z m218 -6 c9 -20 7 -27 -7 -40 -24 -22 -44 -20 -60 6 -12 19 -11
24 9 40 30 24 45 23 58 -6z m317 -32 c4 -31 4 -78 0 -105 -7 -47 -8 -49 -38
-49 l-32 0 0 105 0 105 31 0 c31 0 32 -1 39 -56z m-812 -237 c37 -72 105 -139
171 -172 51 -25 56 -30 56 -61 l0 -33 -40 14 c-93 33 -191 124 -245 226 -19
37 -35 70 -35 73 0 3 15 6 33 6 29 0 35 -6 60 -53z m516 35 c5 -10 6 -23 3
-29 -8 -13 -291 -21 -310 -9 -16 10 -15 43 1 49 6 3 76 6 154 6 127 1 143 -1
152 -17z m281 12 c0 -16 -64 -130 -92 -165 -36 -45 -149 -125 -190 -135 -26
-6 -28 -4 -28 27 0 31 4 36 46 53 59 24 143 109 175 175 21 46 27 51 56 51 18
0 33 -3 33 -6z m-330 -286 c0 -34 -22 -41 -121 -41 -89 0 -99 5 -99 41 l0 27
110 0 110 0 0 -27z"/>
</g>
</svg>
