<?xml version="1.0" standalone="no"?>
<!DOCTYPE svg PUBLIC "-//W3C//DTD SVG 20010904//EN"
 "http://www.w3.org/TR/2001/REC-SVG-20010904/DTD/svg10.dtd">
<svg version="1.0" xmlns="http://www.w3.org/2000/svg"
 width="221.000000pt" height="100.000000pt" viewBox="0 0 221.000000 100.000000"
 preserveAspectRatio="xMidYMid meet">

<g transform="translate(0.000000,100.000000) scale(0.100000,-0.100000)"
fill="#000000" stroke="none">
<path d="M346 965 c-84 -29 -131 -62 -200 -135 -153 -166 -169 -419 -40 -608
49 -70 103 -115 190 -158 103 -51 182 -56 903 -52 l616 3 70 29 c131 54 217
135 277 262 32 67 33 73 33 199 0 125 -1 133 -31 195 -65 136 -169 229 -302
270 -61 19 -94 20 -756 20 l-691 0 -69 -25z m154 -44 c0 -50 -9 -61 -50 -61
-11 0 -44 -9 -75 -21 -108 -40 -211 -165 -230 -280 -7 -39 -7 -39 -52 -39
l-46 0 6 56 c18 173 176 339 360 379 91 20 87 21 87 -34z m1289 38 c193 -32
348 -188 383 -382 42 -240 -134 -486 -377 -527 -49 -8 -226 -10 -590 -8 l-520
3 48 24 c64 31 154 116 194 183 35 57 73 188 73 247 0 60 -28 172 -57 231 -34
67 -143 178 -200 204 -24 10 -43 23 -43 28 0 13 1011 10 1089 -3z m-1079 -41
c115 -56 212 -175 246 -303 23 -84 20 -95 -24 -95 l-39 0 -17 63 c-23 82 -55
135 -115 189 -47 42 -141 88 -181 88 -40 0 -50 11 -50 57 l0 46 58 -7 c32 -3
85 -20 122 -38z m-158 -241 c11 -18 9 -52 -4 -65 -8 -8 -5 -21 17 -52 15 -22
33 -40 40 -40 21 0 65 41 65 60 0 29 42 53 72 41 51 -19 47 -65 -8 -96 -29
-16 -40 -31 -55 -75 -11 -30 -27 -61 -36 -67 -15 -12 -16 -13 0 -13 22 0 41
-36 25 -46 -7 -5 -79 -10 -159 -12 -137 -4 -148 -3 -157 15 -16 29 -3 40 58
49 l55 9 -54 5 -54 5 -21 58 c-17 46 -28 61 -56 75 -59 29 -49 95 15 95 33 0
53 -18 57 -51 2 -17 13 -32 31 -42 27 -15 29 -14 58 18 27 30 29 38 23 79 -6
39 -4 49 12 60 21 15 64 9 76 -10z m-127 -73 c30 -20 31 -35 6 -58 -21 -19
-60 -14 -62 7 -2 21 3 42 13 55 13 15 14 15 43 -4z m213 4 c19 -19 14 -52 -9
-66 -18 -11 -24 -11 -40 4 -25 22 -24 39 3 58 27 19 31 19 46 4z m-495 -169
c18 -154 157 -295 308 -315 l49 -7 0 -38 c0 -45 -3 -46 -99 -24 -177 42 -330
206 -347 374 l-7 61 45 0 45 0 6 -51z m827 29 c-2 -174 -172 -371 -359 -414
-80 -19 -81 -19 -81 25 l0 38 48 7 c115 15 241 115 280 222 12 33 25 78 28
102 6 41 7 42 45 42 34 0 39 -3 39 -22z"/>
</g>
</svg>
