<?xml version="1.0" standalone="no"?>
<!DOCTYPE svg PUBLIC "-//W3C//DTD SVG 20010904//EN"
 "http://www.w3.org/TR/2001/REC-SVG-20010904/DTD/svg10.dtd">
<svg version="1.0" xmlns="http://www.w3.org/2000/svg"
 width="221.000000pt" height="100.000000pt" viewBox="0 0 221.000000 100.000000"
 preserveAspectRatio="xMidYMid meet">

<g transform="translate(0.000000,100.000000) scale(0.100000,-0.100000)"
fill="#000000" stroke="none">
<path d="M346 965 c-84 -29 -131 -62 -200 -135 -153 -166 -169 -419 -40 -608
49 -70 103 -115 190 -158 103 -51 182 -56 903 -52 l616 3 70 29 c131 54 217
135 277 262 32 67 33 73 33 199 0 125 -1 133 -31 195 -65 136 -169 229 -302
270 -61 19 -94 20 -756 20 l-691 0 -69 -25z m154 -45 c0 -46 -2 -50 -27 -55
-112 -23 -163 -48 -223 -107 -47 -47 -95 -137 -105 -199 -7 -39 -7 -39 -52
-39 l-46 0 6 56 c18 173 176 339 360 379 91 20 87 21 87 -35z m1289 39 c193
-32 348 -188 383 -382 42 -240 -134 -486 -377 -527 -49 -8 -226 -10 -590 -8
l-520 3 48 24 c64 31 154 116 194 183 35 57 73 188 73 247 0 60 -28 172 -57
231 -34 67 -143 178 -200 204 -24 10 -43 23 -43 28 0 13 1011 10 1089 -3z
m-1079 -41 c115 -56 212 -175 246 -303 23 -84 20 -95 -24 -95 l-39 0 -17 63
c-23 83 -55 135 -116 190 -50 45 -121 79 -193 92 -36 7 -37 8 -37 52 l0 46 58
-7 c32 -3 85 -20 122 -38z m-270 -181 c0 -1 -9 -20 -20 -42 -11 -22 -20 -45
-20 -53 0 -9 -10 -11 -37 -6 -54 9 -61 20 -28 46 43 35 105 67 105 55z m117
-36 c42 -63 35 -71 -62 -71 -47 0 -85 2 -85 5 0 11 33 70 48 88 25 29 72 18
99 -22z m51 19 c20 -11 48 -29 61 -40 21 -18 22 -23 10 -31 -7 -5 -22 -9 -31
-9 -9 0 -22 -2 -30 -5 -8 -3 -20 12 -33 42 -11 26 -21 51 -23 55 -6 12 6 10
46 -12z m139 -180 l6 -40 -67 0 -66 0 0 29 c0 16 -3 42 -6 58 -6 28 -4 30 43
39 46 9 49 8 66 -18 11 -15 21 -46 24 -68z m-360 76 c1 -1 -1 -27 -4 -59 l-6
-57 -63 0 c-61 0 -64 1 -64 24 0 25 22 85 37 99 6 7 92 1 100 -7z m205 -11 c4
-5 8 -31 8 -57 l0 -48 -100 0 -100 0 0 53 c0 30 2 56 4 58 9 9 181 3 188 -6z
m-449 -166 c18 -154 155 -295 306 -315 l51 -7 0 -38 c0 -45 -3 -46 -99 -24
-177 42 -330 206 -347 374 l-7 61 45 0 45 0 6 -51z m241 -5 c4 -31 5 -58 4
-59 -2 -1 -24 -6 -51 -9 l-47 -7 -20 43 c-11 24 -20 53 -20 66 0 20 4 22 64
22 l63 0 7 -56z m216 14 c0 -66 -5 -69 -106 -66 l-89 3 -3 53 -3 52 100 0 101
0 0 -42z m150 20 c0 -13 -9 -42 -20 -66 l-20 -43 -47 7 c-27 3 -49 8 -51 9 -1
1 0 28 4 59 l7 56 63 0 c60 0 64 -2 64 -22z m220 0 c-2 -174 -172 -371 -359
-414 -80 -19 -81 -19 -81 25 l0 38 48 7 c115 15 241 115 280 222 12 33 25 78
28 102 6 41 7 42 45 42 34 0 39 -3 39 -22z m-427 -104 c48 -8 49 -31 3 -81
-31 -34 -37 -37 -62 -28 -17 6 -36 26 -51 55 l-24 45 33 6 c48 9 59 9 101 3z
m-137 -31 c4 -16 13 -37 20 -48 22 -31 16 -36 -23 -20 -37 16 -93 61 -93 76 0
7 28 14 72 18 12 0 20 -9 24 -26z m284 10 c8 -8 -66 -67 -99 -80 -18 -6 -31
-9 -29 -5 2 4 11 28 22 54 l19 48 41 -6 c22 -4 43 -9 46 -11z"/>
</g>
</svg>
